<?xml version="1.0" encoding="utf-8"?>
<!-- Generator: Adobe Illustrator 20.0.0, SVG Export Plug-In . SVG Version: 6.00 Build 0)  -->
<svg version="1.1" id="Layer_1" xmlns="http://www.w3.org/2000/svg" xmlns:xlink="http://www.w3.org/1999/xlink" x="0px" y="0px"
	 viewBox="0 0 522.8 62.5" style="enable-background:new 0 0 522.8 62.5;" xml:space="preserve">
<style type="text/css">
	.st0{fill:#B49011;}
</style>
<g id="Layer_2">
</g>
<g id="Layer_1_1_">
	<g>
		<rect x="0.9" y="14" class="st0" width="5.7" height="47.5"/>
		<path class="st0" d="M29.5,27.4c-2.9,0-5.6,0.7-7.9,2.1s-4.1,3.4-5.4,6.1c-1.3,2.6-1.9,5.6-1.9,8.8v0.4c0,5.2,1.4,9.4,4.2,12.5
			c2.8,3.2,6.5,4.7,11,4.7c3,0,5.7-0.7,8-2.2c2.3-1.4,4.1-3.5,5.3-6c1.2-2.6,1.9-5.5,1.9-8.8v-0.3c0-5.2-1.4-9.4-4.2-12.6
			C37.7,29,34,27.4,29.5,27.4z M36.4,54c-1.7,2.3-4,3.4-6.9,3.4s-5.2-1.1-6.9-3.4c-1.7-2.2-2.6-5.2-2.6-8.9c0-4.2,0.9-7.4,2.6-9.6
			s4-3.4,6.8-3.4c2.9,0,5.2,1.1,6.9,3.4s2.6,5.2,2.6,8.9C39,48.6,38.2,51.7,36.4,54z"/>
		<path class="st0" d="M67.5,27.4c-4.1,0-7.5,1.6-10,4.8L57.3,28h-5.4v33.4h5.7V37.7c0.8-1.6,1.9-2.9,3.3-3.9c1.4-1,3-1.5,4.9-1.5
			c2.3,0,4,0.6,5.1,1.7c1.1,1.2,1.6,2.9,1.7,5.3v22.1h5.7V39.3C78.1,31.4,74.6,27.4,67.5,27.4z"/>
		<path class="st0" d="M107.9,31.5c-2.3-2.7-5.4-4-9.3-4c-3.9,0-7.1,1.6-9.5,4.7s-3.6,7.2-3.6,12.4V45c0,5.1,1.2,9.2,3.7,12.4
			c2.4,3.2,5.6,4.8,9.5,4.8c4.1,0,7.3-1.4,9.5-4.2l0.3,3.6h5.3V14.1h-5.7v17.4H107.9z M107.9,52.4c-1.7,3.3-4.3,4.9-7.9,4.9
			c-2.8,0-4.9-1.1-6.5-3.2s-2.3-5.1-2.3-8.9c0-4.2,0.8-7.4,2.3-9.6c1.6-2.2,3.7-3.2,6.6-3.2c3.5,0,6.2,1.6,7.9,4.7v15.3H107.9z"/>
		<path class="st0" d="M136.2,27.4c-2.9,0-5.6,0.7-7.9,2.1c-2.3,1.4-4.1,3.4-5.4,6.1c-1.3,2.6-1.9,5.6-1.9,8.8v0.4
			c0,5.2,1.4,9.4,4.2,12.5c2.8,3.2,6.5,4.7,11,4.7c3,0,5.7-0.7,8-2.2c2.3-1.4,4.1-3.5,5.3-6c1.2-2.6,1.9-5.5,1.9-8.8v-0.3
			c0-5.2-1.4-9.4-4.2-12.6C144.4,29,140.7,27.4,136.2,27.4z M143.1,54c-1.7,2.3-4,3.4-6.9,3.4s-5.2-1.1-6.9-3.4
			c-1.7-2.2-2.6-5.2-2.6-8.9c0-4.2,0.9-7.4,2.6-9.6c1.7-2.2,4-3.4,6.8-3.4c2.9,0,5.2,1.1,6.9,3.4s2.6,5.2,2.6,8.9
			C145.7,48.6,144.9,51.7,143.1,54z"/>
		<path class="st0" d="M174.2,27.4c-4.1,0-7.5,1.6-10,4.8L164,28h-5.4v33.4h5.7V37.7c0.8-1.6,1.9-2.9,3.3-3.9s3-1.5,4.9-1.5
			c2.3,0,4,0.6,5.1,1.7c1.1,1.2,1.6,2.9,1.7,5.3v22.1h5.7V39.3C184.8,31.4,181.3,27.4,174.2,27.4z"/>
		<path class="st0" d="M204.9,53.2c-0.5-0.5-0.7-1.4-0.7-2.6V35.3h5.5v-7.2h-5.5v-8.4h-10.4V28h-4.3v7.2h4.3v16.6
			c0,3.4,0.9,6,2.6,7.7s4.4,2.5,7.9,2.5c2,0,4-0.3,5.9-0.9v-7.4c-0.7,0.1-1.6,0.2-2.6,0.2C206.3,53.9,205.4,53.7,204.9,53.2z"/>
		<path class="st0" d="M224,32.3l-0.3-4.3h-9.8v33.4h10.4V40.2c0.9-2.1,3-3.1,6.3-3.1l3.4,0.2l0.2-9.7c-0.8-0.2-1.8-0.4-2.9-0.4
			C228.2,27.4,225.8,29.1,224,32.3z"/>
		<path class="st0" d="M257.3,51.5c-1,1.7-2.7,2.6-5.1,2.6c-2.8,0-4.2-1.4-4.2-4.3V28.1h-10.4v21.6c0,4,0.9,7.1,2.8,9.2
			s4.7,3.2,8.3,3.2c3.7,0,6.7-1.4,8.9-4.2l0.3,3.6h9.8V28.1h-10.5v23.4H257.3z"/>
		<path class="st0" d="M283.7,35.2c0.7-0.6,1.7-0.9,2.8-0.9c2.8,0,4.2,1.3,4.2,4h10.4c0-3.3-1.3-5.9-4-7.9s-6.2-3-10.6-3
			c-4.1,0-7.4,1-9.9,3s-3.8,4.5-3.8,7.6c0,1.7,0.4,3.3,1.3,4.6c0.9,1.3,2.2,2.5,3.9,3.4c1.7,0.9,3.8,1.7,6.4,2.3
			c2.6,0.6,4.4,1.1,5.3,1.7c0.9,0.5,1.4,1.2,1.4,2.1s-0.4,1.7-1.1,2.3c-0.7,0.6-1.8,0.9-3.2,0.9c-1.5,0-2.8-0.4-3.8-1.1
			s-1.5-1.8-1.5-3.4h-9.7c0,2,0.6,3.8,1.9,5.6c1.3,1.8,3,3.2,5.3,4.2c2.2,1,4.8,1.5,7.7,1.5c4.3,0,7.8-1,10.5-2.9s4.1-4.4,4.1-7.4
			c0-4.5-2.5-7.6-7.5-9.3c-1.5-0.5-3.2-1-5.2-1.3c-2-0.4-3.4-0.8-4.3-1.4s-1.4-1.3-1.4-2.3C282.6,36.6,282.9,35.8,283.7,35.2z"/>
		<path class="st0" d="M318.7,53.2c-0.5-0.5-0.7-1.4-0.7-2.6V35.3h5.5v-7.2H318v-8.4h-10.4V28h-4.3v7.2h4.3v16.6
			c0,3.4,0.9,6,2.6,7.7s4.4,2.5,7.9,2.5c2,0,4-0.3,5.9-0.9v-7.4c-0.7,0.1-1.6,0.2-2.6,0.2C320.1,53.9,319.2,53.7,318.7,53.2z"/>
		<path class="st0" d="M364.7,27.4c-2.4,0-4.5,0.5-6.3,1.5s-3.2,2.3-4.3,3.9c-1.7-3.6-4.9-5.4-9.5-5.4c-4.2,0-7.5,1.4-9.9,4.3
			l-0.2-3.7H329v33.4h5.7V37c1.4-3.2,3.9-4.8,7.7-4.8c4.8,0,7.1,2.4,7.1,7.3v21.9h5.7V39.2c0.2-2.1,1-3.8,2.4-5.1
			c1.4-1.3,3.2-1.9,5.3-1.9c2.6,0,4.4,0.6,5.5,1.8c1.1,1.2,1.6,3,1.6,5.4v22.1h5.7V39.1C375.8,31.3,372,27.4,364.7,27.4z"/>
		<path class="st0" d="M397.7,27.4c-2.7,0-5.1,0.7-7.4,2.2s-4,3.5-5.3,6.1s-1.9,5.6-1.9,8.9v1.1c0,5,1.4,9,4.3,11.9
			c2.8,3,6.5,4.5,11.1,4.5c5.6,0,9.8-2.2,12.6-6.5l-3.5-2.7c-1.1,1.4-2.3,2.5-3.7,3.3c-1.4,0.8-3.1,1.2-5.1,1.2c-2.8,0-5.2-1-7-3
			s-2.8-4.7-2.9-8h22.6V44c0-5.3-1.2-9.4-3.6-12.3C405.4,28.9,402,27.4,397.7,27.4z M405.7,41.7H389c0.4-3,1.3-5.4,2.9-7.1
			s3.5-2.5,5.8-2.5c2.4,0,4.3,0.8,5.7,2.4c1.4,1.6,2.2,3.8,2.3,6.8L405.7,41.7L405.7,41.7z"/>
		<path class="st0" d="M439.1,31.5c-2.3-2.7-5.4-4-9.3-4c-3.9,0-7.1,1.6-9.5,4.7s-3.6,7.2-3.6,12.4V45c0,5.1,1.2,9.2,3.7,12.4
			c2.4,3.2,5.6,4.8,9.5,4.8c4.1,0,7.3-1.4,9.5-4.2l0.3,3.6h5.3V14.1h-5.7v17.4H439.1z M439.1,52.4c-1.7,3.3-4.3,4.9-7.9,4.9
			c-2.8,0-4.9-1.1-6.5-3.2s-2.3-5.1-2.3-8.9c0-4.2,0.8-7.4,2.3-9.6c1.6-2.2,3.7-3.2,6.6-3.2c3.5,0,6.2,1.6,7.9,4.7L439.1,52.4
			L439.1,52.4z"/>
		<rect x="454.2" y="28.1" class="st0" width="5.7" height="33.4"/>
		<path class="st0" d="M457.1,15.9c-1.1,0-2,0.3-2.5,1c-0.6,0.6-0.8,1.4-0.8,2.3s0.3,1.7,0.8,2.3c0.6,0.6,1.4,0.9,2.5,0.9
			s2-0.3,2.5-0.9c0.6-0.6,0.9-1.4,0.9-2.3s-0.3-1.7-0.9-2.3C459.1,16.2,458.2,15.9,457.1,15.9z"/>
		<path class="st0" d="M494.5,38.3c-0.1-3.4-1.2-6-3.4-8c-2.2-1.9-5.2-2.9-9.1-2.9c-2.4,0-4.7,0.5-6.7,1.4s-3.6,2.1-4.8,3.7
			s-1.8,3.2-1.8,4.8h5.7c0-1.5,0.7-2.7,2.1-3.7c1.4-1,3.1-1.5,5.1-1.5c2.3,0,4.1,0.6,5.3,1.8c1.2,1.2,1.8,2.8,1.8,4.8v2.6h-5.6
			c-4.8,0-8.5,1-11.2,2.9c-2.6,1.9-4,4.6-4,8.1c0,2.9,1.1,5.2,3.2,7.1c2.1,1.9,4.8,2.8,8.1,2.8c3.7,0,6.9-1.4,9.5-4.1
			c0.2,1.7,0.5,2.9,0.8,3.5h6v-0.5c-0.8-1.8-1.2-4.3-1.2-7.3V38.3H494.5z M488.8,52.1c-0.7,1.5-1.9,2.7-3.5,3.6s-3.3,1.4-5.1,1.4
			c-1.9,0-3.4-0.5-4.6-1.5c-1.2-1-1.8-2.4-1.8-4.2c0-4.1,3.5-6.1,10.5-6.1h4.5L488.8,52.1L488.8,52.1z"/>
		<polygon class="st0" points="499.2,1.6 503,1.6 503,12 504.5,12 504.5,1.6 508.2,1.6 508.2,0.3 499.2,0.3 		"/>
		<polygon class="st0" points="519.6,0.3 515.8,9.9 512,0.3 510,0.3 510,12 511.5,12 511.5,7.5 511.4,2.6 515.2,12 516.4,12 
			520.2,2.6 520,7.5 520,12 521.6,12 521.6,0.3 		"/>
	</g>
</g>
</svg>
