<?xml version="1.0" encoding="utf-8"?>
<!-- Generator: Adobe Illustrator 21.1.0, SVG Export Plug-In . SVG Version: 6.00 Build 0)  -->
<svg version="1.1" id="Layer_1" xmlns="http://www.w3.org/2000/svg" xmlns:xlink="http://www.w3.org/1999/xlink" x="0px" y="0px"
	 viewBox="0 0 539 294" style="enable-background:new 0 0 539 294;" xml:space="preserve">
<style type="text/css">
	.st0{fill:#DCBD54;}
	.st1{clip-path:url(#SVGID_2_);fill:url(#SVGID_3_);}
	.st2{clip-path:url(#SVGID_5_);fill:url(#SVGID_6_);}
</style>
<g>
	<g>
		<path class="st0" d="M229.4,246.1c-8,0-13.8,5.9-13.8,14c0,8.1,5.9,14,13.8,14c8,0,13.6-5.9,13.6-14
			C242.9,252,237.3,246.1,229.4,246.1 M229.4,270.1c-5.4,0-9.2-4.1-9.2-10c0-5.9,3.8-10,9.2-10c5.4,0,9.2,4.1,9.2,10
			C238.6,266,234.8,270.1,229.4,270.1 M157.5,273.6h19.2v-3.9H162v-7.9h14.4v-3.9H162v-7.3h14.7v-3.9h-19.2V273.6z M191.6,253.8
			c0-2.3,1.9-3.7,4.8-3.7c3,0,5.9,1.1,7.9,3l2.5-3.3c-2.5-2.4-6-3.7-10-3.7c-5.8,0-9.8,3.1-9.8,8.1c0,9.4,15.8,5.7,15.8,11.8
			c0,1.9-1.4,4.1-5.6,4.1c-3.2,0-6.4-1.3-8.6-3.7l-2.6,3.5c2.7,2.8,6.5,4.2,10.9,4.2c5,0,10.4-2.3,10.4-8.3
			C207.5,255.7,191.6,259.1,191.6,253.8 M144.1,187.5h-18.7v44.7h9.8v-14.2h8.9c10.8,0,16.6-6,16.6-15.1
			C160.8,193.6,155,187.5,144.1,187.5 M144.1,209.3h-8.8v-12.7h8.8c4.3,0,6.7,2.4,6.7,6.4C150.8,207,148.4,209.3,144.1,209.3
			 M246.7,217.8c-2.6,3.9-6.4,6-11.1,6c-7.4,0-13.3-5.1-13.3-13.8c0-8.1,5.6-13.8,13.3-13.8c4.8,0,8.7,2.3,11.1,6.1l8.1-5.7
			c-3.8-6.1-11-9.8-19-9.8c-13.8,0-23.5,9.6-23.5,23.2c0,13.4,9.6,23.2,23.5,23.2c8.1,0,14.8-3.5,18.8-9.3L246.7,217.8z
			 M302.4,232.2v-44.7h-9.8v17.6h-19.4v-17.6h-9.8v44.7h9.8v-18h19.4v18H302.4z M203.6,223.4h-24.1v-9.2h23v-8.9h-23v-8.9h23.8v-8.9
			h-33.6v44.7h33.9V223.4z M146.8,255c0-5.1-3.5-8.4-8.8-8.4h-12.6v27h4.5v-10.2h5.8l6.3,10.2h5.3l-6.8-10.7
			C144.4,262,146.8,259.2,146.8,255 M129.9,259.4v-8.9h7.5c2.8,0,4.8,1.8,4.8,4.4c0,2.7-2,4.5-4.8,4.5H129.9z M405.4,253.8
			c0-2.3,1.9-3.7,4.8-3.7c3,0,5.9,1.1,7.9,3l2.5-3.3c-2.5-2.4-6-3.7-10-3.7c-5.8,0-9.8,3.1-9.8,8.1c0,9.4,15.8,5.7,15.8,11.8
			c0,1.9-1.4,4.1-5.6,4.1c-3.2,0-6.4-1.3-8.6-3.7l-2.6,3.5c2.7,2.8,6.5,4.2,10.9,4.2c5,0,10.4-2.3,10.4-8.3
			C421.3,255.7,405.4,259.1,405.4,253.8 M456.7,210.5c0-1.3-0.1-2.3-0.1-3.2h-21v7.9h11.1c-1.2,5.9-5.1,8.9-12,8.9
			c-7.2,0-13.1-5.3-13.1-14.1c0-8.2,5.5-13.9,13.2-13.9c4.9,0,8.3,2.3,10.9,6l8.1-5.3c-3.9-6.2-10.8-10-18.5-10
			c-13.8,0-23.7,9.6-23.7,23.2c0,14.3,10.7,23.2,23.5,23.2C447,233.1,456.7,224.5,456.7,210.5 M431.5,273.6h4.5v-27h-4.5V273.6z
			 M467.2,266.1l-14.9-19.5h-4.7v27h4.5v-20.1l15.2,20.1h4.4v-27h-4.5V266.1z M494.5,246.1c-8,0-13.8,5.9-13.8,14
			c0,8.1,5.8,14,13.8,14c8,0,13.8-5.9,13.8-14C508.3,252,502.5,246.1,494.5,246.1 M494.5,270.1c-5.5,0-9.2-4.1-9.2-10
			c0-5.9,3.7-10,9.2-10c5.4,0,9.1,4.1,9.1,10C503.6,266,499.9,270.1,494.5,270.1 M495.3,232.2h10.4l-17.2-44.7h-15.9v1
			c2.4,1,2.6,2.9,1.7,5.2l-15,38.5h10.3l3.1-8.5h19.4L495.3,232.2z M475.8,215.4l6.6-18.1l6.6,18.1H475.8z M281.4,250.5h9v23.1h4.5
			v-23.1h9.1v-3.9h-22.6V250.5z M402.1,187.5h-9.8v28.2l-22-28.2h-8.4v44.7h9.8v-28l21.9,28h8.6V187.5z M344.9,232.2h10.4
			l-17.2-44.7h-15.9v1c2.4,1,2.6,2.9,1.7,5.2l-15,38.5h10.3l3.2-8.5h19.4L344.9,232.2z M325.4,215.4l6.6-18.1l6.6,18.1H325.4z
			 M273.5,255c0-5.1-3.5-8.4-8.8-8.4h-12.6v27h4.5v-10.2h5.8l6.3,10.2h5.3l-6.8-10.7C271,262,273.5,259.2,273.5,255 M256.6,259.4
			v-8.9h7.5c2.8,0,4.8,1.8,4.8,4.4c0,2.7-2,4.5-4.8,4.5H256.6z M350.2,270.1c-5.5,0-9.6-4.2-9.6-10c0-5.8,4.1-10,9.6-10
			c2.8,0,5.5,1.5,6.9,3.9l3.7-2c-1.7-2.8-4.9-5.9-10.7-5.9c-8.2,0-14.1,5.9-14.1,14c0,8.1,5.9,14,14.1,14c4.6,0,8.2-2,10.7-5.9
			l-3.8-1.9C355.6,268.6,353,270.1,350.2,270.1 M377.4,246.6l-10.6,27h5.1l2-5.3h12.7l2.1,5.3h5.1l-10.6-27H377.4z M375.2,264.4
			l5.1-13.6l5.1,13.6H375.2z"/>
	</g>
	<g>
		<defs>
			<path id="SVGID_1_" d="M47.4,229.5V206c0-2.1-1.2-4-3-4.6v-0.9h21.9c4.2,0,8.4,2,8.4,6.7v10.8c0,2.8-0.2,7.5-4.2,10.8l-7.8,6.3
				v-28.3c0-2.1-1.4-3.7-3.3-3.7v57.4h-0.9c-0.2-5.3-3.1-6.1-5-7.6c-4.9-3.8-5.4-7-5.4-9c1.8,4.2,5.9,6.2,6.4,6.4
				c-0.9-2.1-4.1-5.4-5.2-6.9c-1.1-1.6-1.9-3.4-1.9-5.8v-2.5c1.6,5.5,7.3,7,9.4,12.7C55.4,240.3,47.4,235.9,47.4,229.5 M17,273.6
				h86.1v-86.1H17V273.6z"/>
		</defs>
		<clipPath id="SVGID_2_">
			<use xlink:href="#SVGID_1_"  style="overflow:visible;"/>
		</clipPath>
		
			<linearGradient id="SVGID_3_" gradientUnits="userSpaceOnUse" x1="-564.401" y1="847.0009" x2="-563.5442" y2="847.0009" gradientTransform="matrix(68.6062 118.8294 118.8294 -68.6062 -61896.5508 125356.6016)">
			<stop  offset="0" style="stop-color:#FEEDA3"/>
			<stop  offset="1" style="stop-color:#B89100"/>
		</linearGradient>
		<polygon class="st1" points="81.6,150.3 140.3,252.1 38.5,310.9 -20.3,209 		"/>
	</g>
	<g>
		<defs>
			<path id="SVGID_4_" d="M238.1,23.5c0.2-1.1,1.4-1.8,2.5-2.1c2.2-0.6,5.5,0.9,6.6,3c0.3,0.6,0.3,1-0.2,1.6c-1.4,1.4-3,2.1-4.8,2.1
				c-0.1,0-0.2,0-0.3,0C239.5,28,237.8,25.4,238.1,23.5 M217.2,18.1c-3.2,0.5-5.6,2.6-6.2,4.5c-0.3,0.9-0.2,1.8,0.2,2.3
				c0.3,0.4,1.3,0.9,2.5,0.4c1-0.5,1.2-1.8,0.7-2.5c0.8,0.1,1.2,0.7,1.4,1.3c0.5,1.8-0.7,3.3-2.1,3.6c-0.7,0.1-1.8,0.1-2.5-0.3
				c-0.7-0.4-1.1,0.1-1,0.7c0.2,3.8-1.3,5.3,0,8.6c0.4,1.1,1.3,2.3,2.5,3.1c-0.2-1.5-0.2-3.4,0.2-4.3c0.5-1.4,1.3-2.1,3-2.5
				c1.3-0.3,3.1-0.8,4.7-0.7c0.5,0,0.7,0.2,0.8,0.3c0.1,0.1,0.3,0.6,0.4,0.9c0.3,2.3,1.2,3.7,2.9,4.4c-0.3-1.4-0.2-2.5-0.2-3.2
				c0.2-1.9,1.9-3,3.3-3.4c2.6-0.7,4.1,1.4,4.3,1.7c3.1,4,5.7,6.9,9.3,10.3c1.9,1.8,2.2,2.8,2.3,3.6c0.2,0.7-0.4,1.9-1.6,1.7
				c-1.9-0.4-3.3-0.7-5.3-1c-2.3-0.4-4.4-0.4-4.4-0.4s0.8-1.1,3-1.2c1.8-0.1,3.1-0.1,3.4-0.6c0.3-0.5-0.1-1-0.7-1.5
				c-3-2.4-6-5.7-7.3-7.8c-0.2-0.3-1.4-2.3-2.9-1.3c-1,0.7-0.9,2.6-0.2,5.6c-2.7,0.1-6.3-0.9-7.8-3.6c-0.5-0.9-0.7-1.2-1.5-1
				c-0.7,0.1-1.4,0.3-1.9,0.4c-0.4,0.1-0.7,0.4-0.7,0.9c0.1,0.6,0.9,1.4,3.2,2.6c1.1,0.6,4.2,1.6,5.3,1.9c2,0.6,3.9,1.8,4.7,2.8
				c1,1.2,1.4,2,1.8,2.8c-0.9,0.4-2.1,0.6-3,0.5c-0.8-0.2-1.5-0.3-2.3-1.5c-0.6-1-0.7-1.9-0.8-2.5c-0.4,0.5-0.9,1.1-1.2,2.1
				c-0.5,1.7,0,2.6-1.5,2.7c-2.1,0.1-6.1,0.4-7.3,1c-0.7-0.8-1.1-3.4-1.1-4.7c-1.3,1.7-2,3.9-2.1,6c0,1.5,0.1,2.7,0.7,4.1
				c0.7,1.5,1.9,2.4,3.2,2.5c3.7,0.4,6.4,0.6,9.6,2.6c1,0.6,1.9,1.4,2.7,2.3c1.9,2.3,2.1,4.7,0.4,7.2c-1.4,2.1-3.4,3.6-5.4,5.1
				c-4,3-8.3,5.7-11.7,9.4c-3.9,4.2-7.1,8.8-8.3,14.4c-1.3,5.7-0.9,11.3,1.5,16.8c2,4.4,2.2,9.2,1,14c-1.6,6.4-3.6,10-7.9,14.5
				c-2.8,3-6.7,4.6-10.6,3.9c-5.6-1-10.9-1.2-15.9,1.2c-4.3,2.2-7.2,7.5-7.6,12c-0.4,4.5,2.5,10.2,5.6,11.3h8.7
				c-2.7-9,2.7-16.7,11.1-16.7c-4.3,1.8-7,6-7.2,9.4c-0.1,2,0.5,5.7,2.4,7.3h20.2c5.2,0,8.3-3.6,11.7-7.6c5.9-7,10.3-16.7,13.3-24.3
				c0.2-0.6,0.6-0.7,1.2-0.4c4.5,2.1,14.8,4.3,19.9,4.4c1,0,1.6-0.9,2.2-1.6c1.9-2.3,2.6-8.8,1.1-13.9c2,2.2,3.2,5.3,3.7,8
				c1,5.9-1.3,11.1-3.9,14.2c-0.5,0.6-1.2,0.8-1.9,1c-7.4,2.5-10.6,8.5-8.7,14.9c0.7,2.5,2.8,5.4,5.3,6.6h9.2
				c-1.2-3.3-1.7-7.3-0.3-10.8c1.3-3.2,5.5-6.8,9.7-7.1c-6.2,4.8-8.3,11-4.6,18H282c2.5-1.6,3.9-4.7,4.6-7.9c1-4.9,1-15.7-0.2-21.9
				c-0.4-2.2-1.8-8.3-4.9-13.5c6.3,5.1,9.1,14.4,9.4,16.7c3.6-0.1,6.3-0.6,9.8-1.3c0.4,2.2,0.5,5.3-0.6,6.8c-0.7,1-2.1,1.7-3.2,2.1
				c-2,0.7-3.7,1.3-5,4.2c0,3.4-0.2,9.4-2.4,13.6h9.1c-0.7-1.9-0.7-4.5-0.2-6.8c0.9-4.4,4.8-7.7,9.1-8.3c-2.5,1.4-5.9,4.4-6,9.5
				c-0.1,2.9,0.8,4.6,2,5.7c1.6,0,3.3,0,5.1,0c3.2,0,6.6,0,9.6,0c2.9,0,6.4-3.5,7.1-6.4c1.8-7.2,0.7-19.7-1.3-26.2
				c-0.2-0.7,0.1-1.2,0.7-1.7c1.8-1.3,6.5-4.9,8.1-6.5c0.4-0.4,0.8-0.6,1.2-0.3c3.2,2.1,5,3.2,10.4,4.5c2.1,0.5,4.4,0.3,6.6,0.6
				c4.2,0.5,6.7,2.1,9,5.5c2.2,3.2,3.4,6.7,4.3,10.5c0.1,0.6-0.2,0.9-0.5,1.2c-2.1,1.6-4,3.8-5.1,6.1c-2.2,4.6-0.2,11.7,4.3,13.9
				h8.1c-2.4-2.4-4.2-5.8-3.8-10.1c0.5-5.9,5-8.2,5-8.2s-1.8,2.5-1.7,7.3c0.2,4.5,2.7,8.4,6.2,11h14.8c2.3-1.3,4.6-5.3,5-9.5
				c0.5-4.7-0.9-9.1-2.4-13.5c-2.4-7-7.5-21.4-12.9-25c-7.6-5.1-10.3-5.1-18.2-9.6c-2.7-1.5-6.4-4.7-7.8-8.2
				c4.6,4.4,10.5,6.8,19,6.2c7.8-0.5,14-3.9,18.8-9.8c5.2-6.4,7-17.1,3.4-24.6c-5-10.4-18.6-14.8-27.9-8.8c-2.7,1.7-5.1,5.1-4.9,8.8
				c0.1,2.8,3,7.5,9.3,5.6c-3-2.9-0.3-6.5,2-7.1c5.2-1.4,8.9,2.4,8.5,7.6c-0.3,4-1.8,7.7-4.8,10.2c-4.8,4-9.3,4.7-16.3,1.9
				c-5.5-2.2-7.9-5.4-12.2-11.1c-3.6-4.7-10.8-8.7-16.9-8.8c-5.7-0.1-14.8-0.9-23.9,11.5c-3.2,4.3-7.3,8.6-11.8,11.6
				c-12.2,8.1-24,4.2-28,2.5c-2.7-1.2-7.1-2.2-10.4-2.1c3.4-1.7,10.3-0.8,13.7,0.1c7.3,1.9,15.8,0.4,22.4-4.8
				c8.2-6.4,13.2-14.6,14.8-25c1.3-7.9,0.6-15.8-2.1-22.7c-0.4-1-1.3-2.6-2.1-3c-0.4-0.2-1.2,0.1-1.1,1.1c1,13.5-9.6,20.8-22.2,24.6
				c-5.5,1.7-26.5,5.5-38.6,10.3c-4.2,1.7-14,6.2-19.5,13.5c-5.4,7.2-5,17.7,3,25c-7-3.2-9.7-10.1-9.5-16c0.2-9,4.8-15.3,12.4-20
				c7.4-4.6,14.6-7.6,23.9-10.3c5.2-1.5,12.7-3.2,16.5-3.8c1.2-10.4-0.1-19.7-5.8-28.9c2.4,0.1,4.3,0,6.2-0.3
				c4.8-0.8,8.7-3.2,11.3-7.4c1.3-2,1.9-4.2,1.8-6.6c0-3.1-3.3-5.2-6.1-3.9c-1.2,0.6-2,1.5-2.8,2.4c-1.7,2-3.4,4-6.3,4.4
				c-2.6,0.3-5.1,0-7.4-1.2c-4.4-2.2-8.5-4.8-12.2-7.9c-1.2-1-2.6-1.7-4-2.2c-3.5-1.3-6.7,0.4-8.9,2.5c-1.9,1.9-3,2.1-5.1,1.1
				c-0.8-0.4-2-1-2.4-1.1c-0.6-0.1-0.8,0.1-0.9,1c-0.2,3-2.5,5.6-6,5.2c-1.4-0.2-2.6-1.2-2.8-2.5c-0.1-1,0.1-2.1,1-2.6
				c-0.4,1.1,0.2,2.2,1.2,2.5c1.5,0.5,2.6-0.2,3.2-1c0.6-0.8,0.8-2.3-0.1-3.6c-0.8-1.1-2.8-2-5.6-2C218.7,18,217.9,18,217.2,18.1"/>
		</defs>
		<clipPath id="SVGID_5_">
			<use xlink:href="#SVGID_4_"  style="overflow:visible;"/>
		</clipPath>
		
			<linearGradient id="SVGID_6_" gradientUnits="userSpaceOnUse" x1="-563.7103" y1="846.9" x2="-562.8535" y2="846.9" gradientTransform="matrix(129.6871 224.6246 224.6246 -129.6871 -116896.9844 236464.2188)">
			<stop  offset="0" style="stop-color:#FEEDA3"/>
			<stop  offset="1" style="stop-color:#B89100"/>
		</linearGradient>
		<polygon class="st2" points="340.8,-85.7 467.8,134.2 222,276.1 95,56.2 		"/>
	</g>
	<g>
		<path class="st0" d="M509.5,270.7c0.4,0.4,1.1,0.8,1.9,0.8c0.9,0,1.2-0.4,1.2-0.8c0-0.5-0.6-0.7-1.4-0.9c-1-0.2-2.1-0.5-2.1-1.8
			c0-1,0.9-1.8,2.2-1.8c0.9,0,1.7,0.3,2.3,0.8l-0.6,0.8c-0.5-0.5-1.1-0.7-1.7-0.7c-0.6,0-1,0.3-1,0.8c0,0.5,0.6,0.6,1.3,0.8
			c1,0.3,2.2,0.6,2.2,1.9c0,1-0.7,1.9-2.3,1.9c-1.1,0-1.9-0.4-2.5-1L509.5,270.7z"/>
		<polygon class="st0" points="519.9,267.8 518.1,272.4 517.6,272.4 515.8,267.8 515.8,272.4 514.7,272.4 514.7,266.4 516.2,266.4 
			517.9,270.4 519.5,266.4 521,266.4 521,272.4 519.9,272.4 		"/>
	</g>
</g>
</svg>
