<?xml version="1.0" encoding="utf-8"?>
<!-- Generator: Adobe Illustrator 21.1.0, SVG Export Plug-In . SVG Version: 6.00 Build 0)  -->
<svg version="1.1" id="Layer_1" xmlns="http://www.w3.org/2000/svg" xmlns:xlink="http://www.w3.org/1999/xlink" x="0px" y="0px"
	 viewBox="0 0 539 294" style="enable-background:new 0 0 539 294;" xml:space="preserve">
<g>
	<path d="M89,158.2c0,2.3-0.3,4.1-1.4,5.1c-1,0.8-2.9,1-5.8,1c-0.2,0-0.2,0.8,0,0.8h22c0.2,0,0.2-0.8,0-0.8c-2.9,0-4.8-0.2-5.8-1
		c-1.2-1-1.4-2.8-1.4-5.1v-32.9c0-2.3,0.3-4.1,1.4-5.1c1-0.8,2.9-1,5.8-1c0.2,0,0.2-0.8,0-0.8h-22c-0.2,0-0.2,0.8,0,0.8
		c2.9,0,4.8,0.2,5.8,1c1.2,1,1.4,2.8,1.4,5.1V158.2z"/>
	<path d="M74.5,105.6l0.1,15.3c0,0.2-0.7,0.3-0.7,0.1c-3.8-9.4-6.5-14.1-18.3-14.1h-1.3v50.7c0,2.5,0.3,4.2,1.6,5.4
		c0.9,0.8,4.1,1.2,6.7,1.2c0.1,0,0.2,0.9,0,0.9H38c-0.2,0-0.1-0.9,0-0.9c2.6,0,5.8-0.4,6.7-1.2c1.3-1.2,1.6-2.9,1.6-5.4v-50.7H45
		c-11.7,0-14.5,4.7-18.3,14.1c-0.1,0.1-0.8,0-0.7-0.1l0.1-15.3H74.5z"/>
	<path d="M146.6,118.4h-33.9c-0.2,0-0.1,0.8,0,0.8c2.6,0,4.4,0.2,5.3,1c1.1,1,1.3,2.8,1.3,5.1v32.9c0,2.3-0.3,4.1-1.3,5.1
		c-0.9,0.8-2.7,1-5.3,1c-0.1,0-0.2,0.8,0,0.8h21.4c0.2,0,0.2-0.8,0-0.8c-2.9,0-4.8-0.2-5.8-1c-1.2-1-1.4-2.8-1.4-5.1v-16.2h3.3
		c3.6,0,5.5,0.6,7,1.8c1.3,1,2.3,3.1,2.3,5c0,0.2,0.6,0.2,0.7,0V134c-0.2-0.2-0.7-0.2-0.7,0c0,1.9-1,4.1-2.3,5
		c-1.5,1.2-3.4,1.8-7,1.8h-3.3v-21.3h4.4c10.6,0,13.3,5.1,14.9,10.9c0,0.1,0.6,0,0.6-0.1L146.6,118.4z"/>
	<path d="M187.1,118.4h-33.9c-0.2,0-0.1,0.8,0,0.8c2.6,0,4.4,0.2,5.3,1c1.1,1,1.3,2.8,1.3,5.1v32.9c0,2.3-0.3,4.1-1.3,5.1
		c-0.9,0.8-2.7,1-5.3,1c-0.1,0-0.2,0.8,0,0.8h21.4c0.2,0,0.2-0.8,0-0.8c-2.9,0-4.8-0.2-5.8-1c-1.2-1-1.4-2.8-1.4-5.1v-16.2h3.3
		c3.6,0,5.5,0.6,7,1.8c1.3,1,2.3,3.1,2.3,5c0,0.2,0.6,0.2,0.7,0V134c-0.2-0.2-0.7-0.2-0.7,0c0,1.9-1,4.1-2.3,5
		c-1.5,1.2-3.4,1.8-7,1.8h-3.3v-21.3h4.4c10.6,0,13.3,5.1,14.9,10.9c0,0.1,0.6,0,0.6-0.1L187.1,118.4z"/>
	<path d="M232.6,164.3c-3.8-0.4-4.8-1.7-6.5-6.1l-15.5-41.1c0-0.2-1.1-0.2-1.1,0l-15.2,40.2c-2.1,5.3-3.6,6-8.2,7
		c-0.1,0-0.2,0.8,0,0.8h13.9c0.2,0,0.1-0.8,0-0.8c-4-0.2-6-1.8-4-7l3.5-9.5h15l3.7,9.7c1.7,4.4,0,6.5-4.2,6.7c-0.1,0-0.2,0.8,0,0.8
		h18.5C232.7,165.1,232.7,164.3,232.6,164.3 M200,146.7l6.9-18.7l7.2,18.7H200z"/>
	<path d="M281.5,118.4h-15.8c-0.2,0-0.1,0.8,0,0.8c3.5,0.3,5.2,0.6,6.1,2.2c1.1,1.8,1.5,4.9,1.5,8.9V153l-26.5-34.6H234
		c-0.2,0-0.1,0.8,0,0.8c4.9,0,7.3,2.8,7.3,6.8v27.2c0,4.1-0.3,7.1-1.3,8.9c-0.9,1.6-1.8,1.9-5.1,2.2c-0.1,0-0.2,0.8,0,0.8h15.6
		c0.2,0,0.1-0.8,0-0.8c-3.5-0.3-5.2-0.6-6.1-2.2c-1.1-1.8-1.5-4.9-1.5-8.9v-27.7l31.1,40.1c0.3,0.4,1,0.3,1,0v-35.2
		c0-4.1,0.3-7.1,1.3-8.9c0.9-1.6,1.8-1.9,5.3-2.2C281.7,119.2,281.7,118.4,281.5,118.4z"/>
	<path d="M328.4,118.4h-13.3c-0.2,0-0.2,0.8,0,0.8c4.2,0.1,5.7,1.7,4.2,4.8l-9.4,18l-10.1-18.2c-1.5-3,0.1-4.5,4.4-4.5
		c0.1,0,0.1-0.8,0-0.8H285c-0.2,0-0.1,0.8,0,0.8c3.8,0.3,4.8,1.2,6.3,4.1l11.7,21.4v13.5c0,2.3-0.3,4.1-1.3,5.1
		c-0.9,0.8-2.7,1-5.3,1c-0.1,0-0.2,0.8,0,0.8h20.8c0.2,0,0.1-0.8,0-0.8c-2.6,0-4.4-0.2-5.3-1c-1.1-1-1.3-2.8-1.3-5.1v-14.9
		l10.5-19.4c1.8-3.5,3.4-4.4,7.2-4.7C328.5,119.2,328.5,118.4,328.4,118.4z"/>
	<path d="M486.9,117.7c13,0,23.4,10.7,23.4,24c0,13.3-10.4,24-23.4,24s-23.4-10.7-23.4-24C463.6,128.4,473.9,117.7,486.9,117.7
		 M486.9,118.8c-9.5,0-14.4,9.7-14.4,22.9c0,13.2,4.9,22.9,14.4,22.9s14.4-9.7,14.4-22.9C501.3,128.5,496.4,118.8,486.9,118.8z"/>
	<path d="M456.5,147.7c0-0.2-0.7-0.3-0.7,0.1c-2.2,10.5-9.9,16.8-17,16.8c-13.6,0-22.3-12.2-22.3-29c0-16.8,7.6-29.3,21.2-29.3
		c7.6,0,15.5,5.8,17.8,16c0,0.1,0.8,0,0.7-0.1l-0.5-17.4c0-0.1-0.8-0.2-0.8,0c-0.3,2.6-1.9,4.1-4.6,3.1c-3.9-1.5-8.3-3-12.8-3
		c-16.9,0-31.2,13.8-31.2,30.8s14.3,30.4,31.2,30.4c7.1,0,13.2-1.6,18.2-5.1L456.5,147.7z"/>
	<path d="M516.4,156.4c2.6,0,4.6,2.1,4.6,4.7c0,2.6-2,4.7-4.6,4.7c-2.6,0-4.6-2.1-4.6-4.7C511.9,158.5,513.9,156.4,516.4,156.4z"/>
	<path d="M392.2,137.2h-18.7c-0.2,0-0.2,0.8,0,0.8c4.5,0,7.2,1.7,5.5,5.4c-1.3,2.7-2.9,5.4-4.7,7.8l-13.7-17.6
		c8-3.9,12.3-7.7,12.3-14c0-4.4-4.7-9.3-11.3-9.3c-6.9,0-12.9,5.7-12.9,12c0,4.1,1.1,6.9,5,12.8c-7.8,2.9-14.6,9.2-14.6,16.6
		c0,8.3,6.6,14.2,15.4,14.2c6.5,0,11.7-3.5,16.2-8.2l5.6,7.4H390c0.2,0,0.1-0.8,0-0.8c-2.6,0-3.3-0.2-4.8-1c-1.9-1-3.6-2.8-5.5-5.1
		l-4.5-5.8c2.6-3.5,5-7.1,7.3-10.4c1.7-2.5,3.6-3.6,9.8-4C392.3,138,392.4,137.2,392.2,137.2 M361.8,111.9c4.3,0,6.9,3.3,6.9,8.6
		c0,4.7-3.8,10-9.1,12c-3.9-5.6-4.7-9.1-4.7-12.3C354.9,114.1,357.6,111.9,361.8,111.9 M346.7,148.6c0-5.9,2.7-9.9,7.7-12.3
		l15.2,20.2c-3.6,3.3-7.5,5.5-11.2,5.5C351.9,162,346.7,156.5,346.7,148.6z"/>
</g>
</svg>
